<svg width="48" height="20" viewBox="0 0 48 20" fill="none" xmlns="http://www.w3.org/2000/svg">
<rect x="0.2" y="0.2" width="47.6" height="19.6" rx="2.6" fill="#FFE644"/>
<rect x="0.2" y="0.2" width="47.6" height="19.6" rx="2.6" stroke="black" stroke-width="0.4"/>
<path d="M13.4004 3.4043C15.9775 3.40434 18.3014 3.80492 19.9736 4.44531C20.8105 4.7658 21.4735 5.14299 21.9238 5.55078C22.374 5.95843 22.5956 6.38069 22.5957 6.7998C22.5957 7.21905 22.3742 7.64202 21.9238 8.0498C21.4735 8.45755 20.8104 8.83384 19.9736 9.1543C18.3014 9.79471 15.9775 10.1953 13.4004 10.1953C10.8231 10.1953 8.49846 9.79475 6.82617 9.1543C5.98948 8.83383 5.32629 8.45755 4.87598 8.0498C4.42564 7.64203 4.2041 7.21904 4.2041 6.7998C4.20424 6.38072 4.42585 5.9584 4.87598 5.55078C5.32634 5.143 5.98936 4.7658 6.82617 4.44531C8.49846 3.80486 10.8231 3.4043 13.4004 3.4043Z" fill="white" stroke="black" stroke-width="0.409146"/>
<circle cx="13.2" cy="6.8002" r="3.6" fill="black"/>
<path d="M34.6004 3.4043C37.1775 3.40434 39.5015 3.80492 41.1736 4.44531C42.0105 4.7658 42.6735 5.14299 43.1238 5.55078C43.574 5.95843 43.7956 6.38069 43.7957 6.7998C43.7957 7.21905 43.5742 7.64202 43.1238 8.0498C42.6735 8.45755 42.0104 8.83384 41.1736 9.1543C39.5014 9.79471 37.1775 10.1953 34.6004 10.1953C32.0231 10.1953 29.6985 9.79475 28.0262 9.1543C27.1895 8.83383 26.5263 8.45755 26.076 8.0498C25.6257 7.64203 25.4041 7.21904 25.4041 6.7998C25.4043 6.38072 25.6259 5.9584 26.076 5.55078C26.5263 5.143 27.1894 4.7658 28.0262 4.44531C29.6985 3.80486 32.0231 3.4043 34.6004 3.4043Z" fill="white" stroke="black" stroke-width="0.409146"/>
<circle cx="34.4" cy="6.8002" r="3.6" fill="black"/>
<path d="M23.8892 17.25L4.14307 12.8682C4.03526 12.8442 3.97532 12.7398 4.00928 12.6348L4.42432 11.3525C4.45832 11.2475 4.57333 11.1812 4.68115 11.2051L24.0054 15.4932L43.3325 11.2051C43.4404 11.1812 43.5553 11.2474 43.5894 11.3525L44.0044 12.6348C44.0383 12.7398 43.9784 12.8442 43.8706 12.8682L24.1245 17.25C24.0846 17.2588 24.0447 17.2525 24.0073 17.2393C23.9697 17.2528 23.9294 17.2589 23.8892 17.25Z" fill="#D9D9D9"/>
<path d="M23.8892 17.25L23.8458 17.4452L23.8458 17.4453L23.8892 17.25ZM4.14307 12.8682L4.18639 12.6729L4.18639 12.6729L4.14307 12.8682ZM4.00928 12.6348L3.819 12.5732L3.81897 12.5733L4.00928 12.6348ZM4.42432 11.3525L4.6146 11.4141L4.6146 11.4141L4.42432 11.3525ZM4.68115 11.2051L4.72448 11.0098L4.72445 11.0098L4.68115 11.2051ZM24.0054 15.4932L23.962 15.6884C23.9906 15.6947 24.0202 15.6947 24.0487 15.6884L24.0054 15.4932ZM43.3325 11.2051L43.3758 11.4003L43.3758 11.4003L43.3325 11.2051ZM43.5894 11.3525L43.3991 11.4141L43.3991 11.4141L43.5894 11.3525ZM44.0044 12.6348L44.1947 12.5733L44.1947 12.5732L44.0044 12.6348ZM43.8706 12.8682L43.8273 12.6729L43.8273 12.6729L43.8706 12.8682ZM24.1245 17.25L24.1678 17.4453L24.1678 17.4452L24.1245 17.25ZM24.0073 17.2393L24.0742 17.0508C24.0307 17.0353 23.9831 17.0354 23.9397 17.051L24.0073 17.2393ZM23.8892 17.25L23.9325 17.0547L4.18639 12.6729L4.14307 12.8682L4.09974 13.0634L23.8458 17.4452L23.8892 17.25ZM4.14307 12.8682L4.18639 12.6729C4.18588 12.6728 4.18743 12.6731 4.18988 12.6749C4.19226 12.6766 4.19464 12.6792 4.1965 12.6824C4.19836 12.6856 4.19937 12.689 4.19967 12.692C4.19999 12.6951 4.19945 12.6967 4.19959 12.6963L4.00928 12.6348L3.81897 12.5733C3.74866 12.7908 3.87714 13.014 4.09975 13.0634L4.14307 12.8682ZM4.00928 12.6348L4.19956 12.6964L4.6146 11.4141L4.42432 11.3525L4.23404 11.2909L3.819 12.5732L4.00928 12.6348ZM4.42432 11.3525L4.6146 11.4141C4.61498 11.413 4.61733 11.4081 4.62473 11.4038C4.63209 11.3996 4.63714 11.4002 4.63786 11.4003L4.68115 11.2051L4.72445 11.0098C4.51527 10.9634 4.29958 11.0884 4.23403 11.291L4.42432 11.3525ZM4.68115 11.2051L4.63783 11.4003L23.962 15.6884L24.0054 15.4932L24.0487 15.2979L4.72448 11.0098L4.68115 11.2051ZM24.0054 15.4932L24.0487 15.6884L43.3758 11.4003L43.3325 11.2051L43.2892 11.0098L23.9621 15.2979L24.0054 15.4932ZM43.3325 11.2051L43.3758 11.4003C43.3766 11.4002 43.3816 11.3996 43.3889 11.4038C43.3963 11.4081 43.3987 11.4129 43.3991 11.4141L43.5894 11.3525L43.7796 11.291C43.7141 11.0884 43.4984 10.9634 43.2892 11.0098L43.3325 11.2051ZM43.5894 11.3525L43.3991 11.4141L43.8141 12.6964L44.0044 12.6348L44.1947 12.5732L43.7796 11.2909L43.5894 11.3525ZM44.0044 12.6348L43.8141 12.6962C43.8142 12.6967 43.8137 12.6951 43.814 12.692C43.8143 12.689 43.8153 12.6856 43.8172 12.6824C43.819 12.6792 43.8214 12.6766 43.8238 12.6749C43.8262 12.6731 43.8278 12.6728 43.8273 12.6729L43.8706 12.8682L43.9139 13.0634C44.1366 13.014 44.265 12.7908 44.1947 12.5733L44.0044 12.6348ZM43.8706 12.8682L43.8273 12.6729L24.0812 17.0547L24.1245 17.25L24.1678 17.4452L43.9139 13.0634L43.8706 12.8682ZM24.1245 17.25L24.0812 17.0547C24.0896 17.0529 24.0895 17.0562 24.0742 17.0508L24.0073 17.2393L23.9404 17.4277C24 17.4489 24.0796 17.4648 24.1678 17.4453L24.1245 17.25ZM24.0073 17.2393L23.9397 17.051C23.9256 17.0561 23.9251 17.0531 23.9325 17.0547L23.8892 17.25L23.8458 17.4453C23.9337 17.4647 24.0137 17.4495 24.075 17.4275L24.0073 17.2393Z" fill="black"/>
</svg>
