<svg width="48" height="20" viewBox="0 0 48 20" fill="none" xmlns="http://www.w3.org/2000/svg">
<rect x="0.25" y="0.25" width="47.5" height="19.5" rx="2.55" fill="white"/>
<rect x="0.25" y="0.25" width="47.5" height="19.5" rx="2.55" stroke="black" stroke-width="0.5"/>
<path d="M13.4004 3.8501C15.9733 3.85014 18.2912 4.25027 19.957 4.88818C20.7908 5.20749 21.4488 5.58121 21.8936 5.98389C22.3381 6.38645 22.5497 6.79786 22.5498 7.19971C22.5498 7.60168 22.3383 8.01381 21.8936 8.4165C21.4488 8.81914 20.7907 9.19293 19.957 9.51221C18.2912 10.1501 15.9733 10.5503 13.4004 10.5503C10.8273 10.5503 8.50866 10.1502 6.84277 9.51221C6.00903 9.1929 5.351 8.81918 4.90625 8.4165C4.46151 8.01381 4.25 7.60168 4.25 7.19971C4.25014 6.79787 4.46167 6.38644 4.90625 5.98389C5.351 5.58118 6.00898 5.20751 6.84277 4.88818C8.50866 4.2502 10.8272 3.8501 13.4004 3.8501Z" fill="white" stroke="black" stroke-width="0.5"/>
<circle cx="13.1999" cy="7.2001" r="3.6" fill="black"/>
<path d="M34.6005 3.8501C37.1734 3.85014 39.4913 4.25027 41.1571 4.88818C41.9908 5.20749 42.6489 5.58121 43.0936 5.98389C43.5382 6.38645 43.7497 6.79786 43.7499 7.19971C43.7499 7.60168 43.5384 8.01381 43.0936 8.4165C42.6489 8.81914 41.9908 9.19293 41.1571 9.51221C39.4913 10.1501 37.1733 10.5503 34.6005 10.5503C32.0274 10.5503 29.7087 10.1502 28.0428 9.51221C27.2091 9.1929 26.5511 8.81918 26.1063 8.4165C25.6616 8.01381 25.4501 7.60168 25.4501 7.19971C25.4502 6.79787 25.6617 6.38644 26.1063 5.98389C26.5511 5.58118 27.2091 5.20751 28.0428 4.88818C29.7087 4.2502 32.0273 3.8501 34.6005 3.8501Z" fill="white" stroke="black" stroke-width="0.5"/>
<circle cx="34.4" cy="7.2001" r="3.6" fill="black"/>
<rect x="4.25" y="14.25" width="39.5" height="2.7" fill="#D9D9D9" stroke="black" stroke-width="0.5"/>
</svg>
