<svg width="48" height="20" viewBox="0 0 48 20" fill="none" xmlns="http://www.w3.org/2000/svg">
<rect x="0.2" y="0.2" width="47.6" height="19.6" rx="2.6" fill="#C28EFE"/>
<rect x="0.2" y="0.2" width="47.6" height="19.6" rx="2.6" stroke="black" stroke-width="0.4"/>
<path d="M13.4004 2.604C15.9775 2.60404 18.3014 3.00463 19.9736 3.64502C20.8105 3.96551 21.4735 4.3427 21.9238 4.75049C22.374 5.15814 22.5956 5.5804 22.5957 5.99951C22.5957 6.41876 22.3742 6.84173 21.9238 7.24951C21.4735 7.65725 20.8104 8.03354 19.9736 8.354C18.3014 8.99442 15.9775 9.39498 13.4004 9.39502C10.8231 9.39502 8.49846 8.99445 6.82617 8.354C5.98948 8.03354 5.32629 7.65725 4.87598 7.24951C4.42564 6.84174 4.2041 6.41875 4.2041 5.99951C4.20424 5.58043 4.42585 5.15811 4.87598 4.75049C5.32634 4.3427 5.98936 3.96551 6.82617 3.64502C8.49846 3.00457 10.8231 2.604 13.4004 2.604Z" fill="white" stroke="black" stroke-width="0.409146"/>
<circle cx="13.1999" cy="5.9999" r="3.6" fill="black"/>
<path d="M34.6004 2.604C37.1775 2.60404 39.5015 3.00463 41.1736 3.64502C42.0105 3.96551 42.6735 4.3427 43.1238 4.75049C43.574 5.15814 43.7956 5.5804 43.7957 5.99951C43.7957 6.41876 43.5742 6.84173 43.1238 7.24951C42.6735 7.65725 42.0104 8.03354 41.1736 8.354C39.5014 8.99442 37.1775 9.39498 34.6004 9.39502C32.0231 9.39502 29.6985 8.99445 28.0262 8.354C27.1895 8.03354 26.5263 7.65725 26.076 7.24951C25.6257 6.84174 25.4041 6.41875 25.4041 5.99951C25.4043 5.58043 25.6259 5.15811 26.076 4.75049C26.5263 4.3427 27.1894 3.96551 28.0262 3.64502C29.6985 3.00457 32.0231 2.604 34.6004 2.604Z" fill="white" stroke="black" stroke-width="0.409146"/>
<circle cx="34.4" cy="5.9999" r="3.6" fill="black"/>
<path d="M24.1025 9.20752L43.8496 15.0571C43.9553 15.0885 44.0199 15.2009 43.9941 15.3081L43.5791 17.021C43.5529 17.1281 43.4456 17.19 43.3398 17.1587L24 11.4292L4.66016 17.1587C4.55438 17.19 4.44708 17.1281 4.4209 17.021L4.00586 15.3081C3.98006 15.2009 4.04462 15.0885 4.15039 15.0571L23.8965 9.20752C23.9316 9.19711 23.9666 9.19819 23.999 9.20654C24.0316 9.19787 24.067 9.19707 24.1025 9.20752Z" fill="#D9D9D9"/>
<path d="M24.1025 9.20752L24.1593 9.01576L24.159 9.01565L24.1025 9.20752ZM43.8496 15.0571L43.9066 14.8654L43.9064 14.8654L43.8496 15.0571ZM43.9941 15.3081L44.1885 15.3552L44.1886 15.3549L43.9941 15.3081ZM43.5791 17.021L43.7734 17.0685L43.7735 17.0681L43.5791 17.021ZM43.3398 17.1587L43.283 17.3505V17.3505L43.3398 17.1587ZM24 11.4292L24.0568 11.2374C24.0197 11.2265 23.9803 11.2265 23.9432 11.2374L24 11.4292ZM4.66016 17.1587L4.71696 17.3505L4.71697 17.3505L4.66016 17.1587ZM4.4209 17.021L4.22652 17.0681L4.22662 17.0685L4.4209 17.021ZM4.00586 15.3081L3.81141 15.3549L3.81148 15.3552L4.00586 15.3081ZM4.15039 15.0571L4.09358 14.8654L4.09353 14.8654L4.15039 15.0571ZM23.8965 9.20752L23.8397 9.01576L23.8397 9.01576L23.8965 9.20752ZM23.999 9.20654L23.9491 9.40022C23.9824 9.40878 24.0173 9.40865 24.0504 9.39982L23.999 9.20654ZM24.1025 9.20752L24.0457 9.39928L43.7928 15.2489L43.8496 15.0571L43.9064 14.8654L24.1593 9.01576L24.1025 9.20752ZM43.8496 15.0571L43.7927 15.2489C43.793 15.249 43.7955 15.2499 43.7979 15.254C43.8002 15.2581 43.7998 15.2608 43.7997 15.2613L43.9941 15.3081L44.1886 15.3549C44.2392 15.1445 44.1145 14.9272 43.9066 14.8654L43.8496 15.0571ZM43.9941 15.3081L43.7998 15.261L43.3847 16.9739L43.5791 17.021L43.7735 17.0681L44.1885 15.3552L43.9941 15.3081ZM43.5791 17.021L43.3848 16.9735C43.3848 16.9738 43.385 16.9729 43.386 16.9715C43.3869 16.9703 43.3881 16.9693 43.3895 16.9685C43.3909 16.9676 43.3925 16.9671 43.3941 16.9669C43.3958 16.9667 43.3968 16.967 43.3967 16.9669L43.3398 17.1587L43.283 17.3505C43.4988 17.4144 43.7202 17.2862 43.7734 17.0685L43.5791 17.021ZM43.3398 17.1587L43.3967 16.9669L24.0568 11.2374L24 11.4292L23.9432 11.621L43.283 17.3505L43.3398 17.1587ZM24 11.4292L23.9432 11.2374L4.60335 16.9669L4.66016 17.1587L4.71697 17.3505L24.0568 11.621L24 11.4292ZM4.66016 17.1587L4.60335 16.9669C4.60317 16.967 4.60416 16.9667 4.6059 16.9669C4.60749 16.9671 4.60908 16.9676 4.6105 16.9685C4.61193 16.9693 4.61313 16.9704 4.61404 16.9716C4.61503 16.9729 4.61524 16.9738 4.61518 16.9735L4.4209 17.021L4.22662 17.0685C4.27983 17.2862 4.50125 17.4144 4.71696 17.3505L4.66016 17.1587ZM4.4209 17.021L4.61527 16.9739L4.20023 15.261L4.00586 15.3081L3.81148 15.3552L4.22652 17.0681L4.4209 17.021ZM4.00586 15.3081L4.20031 15.2613C4.20017 15.2607 4.19979 15.258 4.20213 15.2539C4.20447 15.2499 4.20689 15.249 4.20725 15.2489L4.15039 15.0571L4.09353 14.8654C3.88539 14.9271 3.7608 15.1446 3.81141 15.3549L4.00586 15.3081ZM4.15039 15.0571L4.2072 15.2489L23.9533 9.39928L23.8965 9.20752L23.8397 9.01576L4.09358 14.8654L4.15039 15.0571ZM23.8965 9.20752L23.9533 9.39928C23.9515 9.39981 23.9498 9.4 23.9486 9.4C23.9476 9.4 23.9477 9.39985 23.9491 9.40022L23.999 9.20654L24.0489 9.01286C23.9866 8.99681 23.9143 8.99364 23.8397 9.01576L23.8965 9.20752ZM23.999 9.20654L24.0504 9.39982C24.0509 9.39971 24.0488 9.40018 24.0461 9.39939L24.1025 9.20752L24.159 9.01565C24.0853 8.99396 24.0124 8.99603 23.9476 9.01326L23.999 9.20654Z" fill="black"/>
</svg>
