<svg width="48" height="20" viewBox="0 0 48 20" fill="none" xmlns="http://www.w3.org/2000/svg">
<rect x="0.2" y="0.2" width="47.6" height="19.6" rx="2.6" fill="#FF4A4A"/>
<rect x="0.2" y="0.2" width="47.6" height="19.6" rx="2.6" stroke="black" stroke-width="0.4"/>
<path d="M14.2793 2.32009C16.7686 2.98712 18.9097 3.97555 20.3592 5.02691C21.0845 5.55307 21.6273 6.089 21.9568 6.59946C22.2861 7.10974 22.3908 7.57495 22.2825 7.97982C22.174 8.38478 21.8505 8.73601 21.31 9.01333C20.7695 9.29062 20.0315 9.48246 19.1404 9.57544C17.3594 9.76124 15.011 9.54668 12.5217 8.87971C10.0322 8.21266 7.89046 7.22408 6.44091 6.17263C5.71567 5.64653 5.17247 5.11142 4.84303 4.60102C4.51358 4.09059 4.40907 3.62468 4.51757 3.21972C4.62617 2.81496 4.94954 2.46438 5.48983 2.18715C6.03038 1.90983 6.76844 1.71708 7.65969 1.6241C9.44075 1.43829 11.7899 1.65304 14.2793 2.32009Z" fill="#FF9933" stroke="black" stroke-width="0.409146"/>
<path d="M33.7216 2.31981C36.2109 1.65286 38.5593 1.4383 40.3403 1.62407C41.2316 1.71706 41.9696 1.90979 42.5101 2.18713C43.0505 2.46436 43.3738 2.8149 43.4824 3.2197C43.5909 3.62466 43.4864 4.09055 43.1569 4.601C42.8275 5.1114 42.2843 5.6465 41.5591 6.1726C40.1096 7.224 37.9685 8.21238 35.4792 8.87943C32.9898 9.54648 30.6407 9.76122 28.8596 9.57542C27.9685 9.48242 27.2305 9.29061 26.69 9.01331C26.1495 8.73599 25.826 8.38475 25.7175 7.97979C25.6091 7.57496 25.7139 7.10967 26.0432 6.59944C26.3727 6.08899 26.9155 5.55304 27.6408 5.02689C29.0904 3.97544 31.2321 2.98686 33.7216 2.31981Z" fill="#FF9933" stroke="black" stroke-width="0.409146"/>
<path d="M24.1025 9.20801L43.8496 15.0576C43.9553 15.0891 44.0201 15.2014 43.9941 15.3086L43.5791 17.0205C43.5531 17.1279 43.4458 17.1896 43.3398 17.1582L24 11.4287L4.66016 17.1582C4.55425 17.1896 4.44692 17.1279 4.4209 17.0205L4.00586 15.3086C3.97992 15.2013 4.04458 15.089 4.15039 15.0576L23.8965 9.20801C23.9316 9.1976 23.9666 9.19868 23.999 9.20703C24.0317 9.19843 24.0671 9.19755 24.1025 9.20801Z" fill="#D9D9D9"/>
<path d="M24.1025 9.20801L24.1593 9.01624L24.1591 9.01618L24.1025 9.20801ZM43.8496 15.0576L43.9067 14.8659L43.9064 14.8659L43.8496 15.0576ZM43.9941 15.3086L44.1885 15.3557L44.1885 15.3556L43.9941 15.3086ZM43.5791 17.0205L43.3847 16.9734L43.3847 16.9734L43.5791 17.0205ZM43.3398 17.1582L43.283 17.35V17.35L43.3398 17.1582ZM24 11.4287L24.0568 11.2369C24.0197 11.226 23.9803 11.226 23.9432 11.2369L24 11.4287ZM4.66016 17.1582L4.71696 17.35L4.71697 17.35L4.66016 17.1582ZM4.4209 17.0205L4.61527 16.9734L4.61527 16.9734L4.4209 17.0205ZM4.00586 15.3086L3.81146 15.3556L3.81149 15.3557L4.00586 15.3086ZM4.15039 15.0576L4.09358 14.8659L4.09349 14.8659L4.15039 15.0576ZM23.8965 9.20801L23.8397 9.01625L23.8397 9.01625L23.8965 9.20801ZM23.999 9.20703L23.9491 9.40071C23.9822 9.40923 24.0169 9.40914 24.0499 9.40044L23.999 9.20703ZM24.1025 9.20801L24.0457 9.39977L43.7928 15.2494L43.8496 15.0576L43.9064 14.8659L24.1593 9.01624L24.1025 9.20801ZM43.8496 15.0576L43.7925 15.2493C43.793 15.2494 43.7956 15.2505 43.7979 15.2546C43.8003 15.2586 43.7998 15.2612 43.7997 15.2616L43.9941 15.3086L44.1885 15.3556C44.2395 15.1447 44.1141 14.9277 43.9067 14.8659L43.8496 15.0576ZM43.9941 15.3086L43.7998 15.2615L43.3847 16.9734L43.5791 17.0205L43.7735 17.0676L44.1885 15.3557L43.9941 15.3086ZM43.5791 17.0205L43.3847 16.9734C43.3847 16.9737 43.3849 16.9727 43.3859 16.9713C43.3869 16.97 43.3882 16.9689 43.3897 16.968C43.3912 16.9672 43.3928 16.9666 43.3944 16.9665C43.3961 16.9662 43.3969 16.9665 43.3967 16.9664L43.3398 17.1582L43.283 17.35C43.4985 17.4138 43.7205 17.2863 43.7735 17.0676L43.5791 17.0205ZM43.3398 17.1582L43.3967 16.9664L24.0568 11.2369L24 11.4287L23.9432 11.6205L43.283 17.35L43.3398 17.1582ZM24 11.4287L23.9432 11.2369L4.60335 16.9664L4.66016 17.1582L4.71697 17.35L24.0568 11.6205L24 11.4287ZM4.66016 17.1582L4.60335 16.9664C4.60305 16.9665 4.60395 16.9662 4.60564 16.9665C4.6072 16.9666 4.60882 16.9672 4.61031 16.968C4.6118 16.9689 4.61309 16.97 4.61406 16.9713C4.61511 16.9727 4.61534 16.9737 4.61527 16.9734L4.4209 17.0205L4.22653 17.0676C4.27953 17.2863 4.50152 17.4138 4.71696 17.35L4.66016 17.1582ZM4.4209 17.0205L4.61527 16.9734L4.20023 15.2615L4.00586 15.3086L3.81149 15.3557L4.22653 17.0676L4.4209 17.0205ZM4.00586 15.3086L4.20026 15.2616C4.20013 15.2611 4.19973 15.2585 4.20204 15.2545C4.20434 15.2505 4.20679 15.2495 4.2073 15.2494L4.15039 15.0576L4.09349 14.8659C3.88558 14.9276 3.76051 15.1448 3.81146 15.3556L4.00586 15.3086ZM4.15039 15.0576L4.2072 15.2494L23.9533 9.39977L23.8965 9.20801L23.8397 9.01625L4.09358 14.8659L4.15039 15.0576ZM23.8965 9.20801L23.9533 9.39977C23.9515 9.4003 23.9498 9.40049 23.9486 9.40048C23.9476 9.40048 23.9477 9.40034 23.9491 9.40071L23.999 9.20703L24.0489 9.01335C23.9866 8.9973 23.9143 8.99413 23.8397 9.01625L23.8965 9.20801ZM23.999 9.20703L24.0499 9.40044C24.0512 9.40012 24.0492 9.40078 24.0459 9.39983L24.1025 9.20801L24.1591 9.01618C24.085 8.99432 24.0122 8.99674 23.9481 9.01362L23.999 9.20703Z" fill="black"/>
</svg>
